<svg width="32" height="32" viewBox="0 0 32 32" fill="none" xmlns="http://www.w3.org/2000/svg">
<path fill-rule="evenodd" clip-rule="evenodd" d="M2.74057 6.74069C3.4282 6.05306 4.36083 5.66675 5.33329 5.66675H26.6666C27.6391 5.66675 28.5717 6.05306 29.2593 6.74069C29.947 7.42832 30.3333 8.36095 30.3333 9.33341V12.0001C30.3333 12.5524 29.8856 13.0001 29.3333 13.0001C28.5376 13.0001 27.7746 13.3162 27.212 13.8788C26.6494 14.4414 26.3333 15.2044 26.3333 16.0001C26.3333 16.7957 26.6494 17.5588 27.212 18.1214C27.7746 18.684 28.5376 19.0001 29.3333 19.0001C29.8856 19.0001 30.3333 19.4478 30.3333 20.0001V22.6667C30.3333 23.6392 29.947 24.5718 29.2593 25.2595C28.5717 25.9471 27.6391 26.3334 26.6666 26.3334H5.33329C4.36083 26.3334 3.4282 25.9471 2.74057 25.2595C2.05293 24.5718 1.66663 23.6392 1.66663 22.6667V20.0001C1.66663 19.4478 2.11434 19.0001 2.66663 19.0001C3.46228 19.0001 4.22534 18.684 4.78795 18.1214C5.35055 17.5588 5.66663 16.7957 5.66663 16.0001C5.66663 15.2044 5.35055 14.4414 4.78795 13.8788C4.22534 13.3162 3.46228 13.0001 2.66663 13.0001C2.11434 13.0001 1.66663 12.5524 1.66663 12.0001V9.33341C1.66663 8.36095 2.05293 7.42832 2.74057 6.74069ZM18.3333 24.3334V22.6667C18.3333 22.1145 17.8856 21.6667 17.3333 21.6667C16.781 21.6667 16.3333 22.1145 16.3333 22.6667V24.3334H5.33329C4.89127 24.3334 4.46734 24.1578 4.15478 23.8453C3.84222 23.5327 3.66663 23.1088 3.66663 22.6667V20.8991C4.62007 20.7044 5.50378 20.234 6.20216 19.5356C7.13984 18.5979 7.66663 17.3262 7.66663 16.0001C7.66663 14.674 7.13984 13.4022 6.20216 12.4645C5.50378 11.7662 4.62007 11.2957 3.66663 11.1011V9.33341C3.66663 8.89139 3.84222 8.46746 4.15478 8.1549C4.46734 7.84234 4.89126 7.66675 5.33329 7.66675H16.3333V9.33341C16.3333 9.8857 16.781 10.3334 17.3333 10.3334C17.8856 10.3334 18.3333 9.8857 18.3333 9.33341V7.66675H26.6666C27.1087 7.66675 27.5326 7.84234 27.8451 8.1549C28.1577 8.46746 28.3333 8.89139 28.3333 9.33341V11.1011C27.3798 11.2957 26.4961 11.7662 25.7978 12.4645C24.8601 13.4022 24.3333 14.674 24.3333 16.0001C24.3333 17.3262 24.8601 18.5979 25.7978 19.5356C26.4961 20.234 27.3798 20.7044 28.3333 20.8991V22.6667C28.3333 23.1088 28.1577 23.5327 27.8451 23.8453C27.5326 24.1578 27.1087 24.3334 26.6666 24.3334H18.3333ZM17.3333 13.6667C17.8856 13.6667 18.3333 14.1145 18.3333 14.6667V17.3334C18.3333 17.8857 17.8856 18.3334 17.3333 18.3334C16.781 18.3334 16.3333 17.8857 16.3333 17.3334V14.6667C16.3333 14.1145 16.781 13.6667 17.3333 13.6667Z" fill="white"/>
</svg>
